<?xml version="1.0" encoding="UTF-8" standalone="no"?>
<!-- Generator: Adobe Illustrator 19.0.0, SVG Export Plug-In . SVG Version: 6.00 Build 0)  -->

<svg
   xmlns:dc="http://purl.org/dc/elements/1.1/"
   xmlns:cc="http://creativecommons.org/ns#"
   xmlns:rdf="http://www.w3.org/1999/02/22-rdf-syntax-ns#"
   xmlns:svg="http://www.w3.org/2000/svg"
   xmlns="http://www.w3.org/2000/svg"
   xmlns:sodipodi="http://sodipodi.sourceforge.net/DTD/sodipodi-0.dtd"
   xmlns:inkscape="http://www.inkscape.org/namespaces/inkscape"
   version="1.1"
   id="Layer_1"
   x="0px"
   y="0px"
   viewBox="0 0 290.627 290.627"
   style="enable-background:new 0 0 290.627 290.627;"
   xml:space="preserve"
   sodipodi:docname="wildCart.svg"
   inkscape:export-filename="/datos/usuarios/profesores/raznara/AngularProjects/wildCartAngularClient2021/src/assets/img/wildCart600.png"
   inkscape:export-xdpi="53.616695"
   inkscape:export-ydpi="53.616695"
   inkscape:version="0.92.5 (2060ec1f9f, 2020-04-08)"><metadata
   id="metadata171"><rdf:RDF><cc:Work
       rdf:about=""><dc:format>image/svg+xml</dc:format><dc:type
         rdf:resource="http://purl.org/dc/dcmitype/StillImage" /><dc:title></dc:title></cc:Work></rdf:RDF></metadata><defs
   id="defs169">
	

		
	
			
			
			
			
			
		</defs><sodipodi:namedview
   pagecolor="#ffffff"
   bordercolor="#666666"
   borderopacity="1"
   objecttolerance="10"
   gridtolerance="10"
   guidetolerance="10"
   inkscape:pageopacity="0"
   inkscape:pageshadow="2"
   inkscape:window-width="1848"
   inkscape:window-height="1016"
   id="namedview167"
   showgrid="false"
   inkscape:zoom="0.14963188"
   inkscape:cx="-1383.717"
   inkscape:cy="248.16292"
   inkscape:window-x="1992"
   inkscape:window-y="27"
   inkscape:window-maximized="1"
   inkscape:current-layer="Layer_1" />

<g
   id="g136">
</g>
<g
   id="g138">
</g>
<g
   id="g140">
</g>
<g
   id="g142">
</g>
<g
   id="g144">
</g>
<g
   id="g146">
</g>
<g
   id="g148">
</g>
<g
   id="g150">
</g>
<g
   id="g152">
</g>
<g
   id="g154">
</g>
<g
   id="g156">
</g>
<g
   id="g158">
</g>
<g
   id="g160">
</g>
<g
   id="g162">
</g>
<g
   id="g164">
</g>
<g
   id="g3969"
   inkscape:export-xdpi="30.606142"
   inkscape:export-ydpi="30.606142"
   transform="translate(559.70692,31.744572)"
   inkscape:export-filename="/datos/usuarios/profesores/raznara/AngularProjects/wildCartAngularClient2021/src/assets/img/wildCartLogo100.png"><path
     sodipodi:nodetypes="sccsscccccsccsssccssscsssssccsssccssccsccscscccscscsccsccss"
     d="m -558.8961,88.305052 0.5907,-131.764423 h -0.239 c -1.181,-10.519 -10.02774,-18.623532 -20.855,-18.75 l -50.5718,-0.590705 c -10.82727,-0.126468 -19.673,8.231 -20.855,18.75 h -0.239 l -0.59071,92.183423 c -2.77,-1.612 -5.944,-2.606 -9.375,-2.606 -117.43137,-0.01578 -6.18518,0 -192.187,0 -10.341,0 -18.75,8.409 -18.75,18.75 0,9.694 7.425,17.602 16.87,18.558 4.275,45.933003 40.233,82.734003 85.748,88.411003 -1.027,4.28 -4.134,10.219 -13.556,10.219 h -28.124 c -11.348,0 -32.813,6.858 -32.813,32.81299 v 4.688 h 271.95129 v -4.688 c 0,-25.95499 -21.464,-32.81299 -32.813,-32.81299 -0.384,0 -18.82629,-0.159 -18.82629,-14.063 v -28.543 c 11.873,-1.659 64.45012,-9.3567 64.63481,-50.554298 z m -82.7941,-130.011128 c 0,-6.459 5.25543,-11.794498 11.719,-11.719 l 50.5718,0.590705 c 6.46356,0.0755 11.719,5.259 11.719,11.719 v 11.719 l -74.0098,-0.590705 z M -853.21791,73.652347 c -5.17,0 -9.375,-4.205 -9.375,-9.375 0,-5.17 4.205,-9.375 9.375,-9.375 75.91616,0.525744 125.88367,0 192.188,0 5.17,0 9.375,4.205 9.375,9.375 0,5.17 -4.205,9.375 -9.375,9.375 h -7.031 -178.126 z m 7.533,9.375 h 177.117 c -4.697,44.719003 -42.614,79.688003 -88.556,79.688003 -45.942,0 -83.86,-34.97 -88.561,-79.688003 z m 240.98029,107.813003 c 0.886,0 20.292,0.23 23.1,18.75 h -252.53029 c 2.691,-18.042 20.897,-18.731 23.105,-18.75 h 28.125 c 15.459,0 21.417,-10.65 22.973,-18.891 0.942,0.023 1.861,0.141 2.808,0.141 51.178,0 93.319,-39.272 97.973,-89.255003 9.445,-0.956 16.87,-8.864 16.87,-18.558 l 0.59071,-84.889423 74.0098,0.590705 -0.5907,108.327423 c -0.22623,41.487388 -58.42781,41.586298 -59.94681,41.596298 h -4.688 v 37.5 c 0,18.539 21.71429,23.438 28.20129,23.438 z"
     id="path122"
     inkscape:connector-curvature="0" /><circle
     r="43.121487"
     cy="239.64102"
     cx="-792.22369"
     id="path3894"
     style="fill:#00000e;fill-opacity:1" /><circle
     r="43.121487"
     cy="239.05034"
     cx="-624.68231"
     id="path3894-3"
     style="fill:#00000e;fill-opacity:1" /><circle
     r="33.079494"
     cy="239.64105"
     cx="-792.22369"
     id="path3894-6"
     style="fill:#ffffff;fill-opacity:1;stroke-width:0.76712328" /><circle
     r="33.079494"
     cy="239.05034"
     cx="-624.68231"
     id="path3894-6-7"
     style="fill:#ffffff;fill-opacity:1;stroke-width:0.76712328" /><g
     id="text3951"
     style="font-style:normal;font-variant:normal;font-weight:normal;font-stretch:normal;font-size:136.33465576px;line-height:1.25;font-family:Dyuthi;-inkscape-font-specification:Dyuthi;letter-spacing:0px;word-spacing:0px;fill:#000000;fill-opacity:1;stroke:none;stroke-width:3.4083662"
     transform="rotate(12.02273,-595.64096,-5961.0287)"
     aria-label="W"><path
       sodipodi:nodetypes="sscccssscccccssccccssccccccccscccccccs"
       inkscape:connector-curvature="0"
       id="path3957"
       style="stroke-width:3.4083662"
       d="m 498.42565,-113.70029 h 1.46454 c 3.37286,0 6.03565,1.35358 7.98836,4.06075 1.95271,2.70717 2.32993,5.72499 1.13168,9.05348 l -21.68457,50.169059 c -1.06512,3.062204 -2.90688,5.569661 -5.52528,7.522371 -2.61841,1.95271 -5.63623,2.929065 -9.05347,2.929065 h -0.26628 c -3.59476,0 -6.8123,-1.131685 -9.6526,-3.395053 -2.88469,-2.263368 -4.77083,-5.103674 -5.65842,-8.520916 l -8.40492,-23.940618 -8.9869,35.348487 c -0.84322,3.284103 -2.70717,6.124409 -5.59185,8.520916 -2.75155,2.263369 -5.90251,3.395053 -9.45289,3.395053 h -0.26628 c -3.23973,0 -6.25755,-0.998545 -9.05348,-2.995635 -2.79592,-1.99709 -4.72644,-4.482357 -5.79156,-7.455801 l -26.70784,-80.974278 c -1.1095,-3.15097 -0.71008,-6.12442 1.19826,-8.92034 1.9527,-2.79593 4.63768,-4.19389 8.05493,-4.19389 h 1.46453 c 2.13022,0 4.03855,0.59912 5.72499,1.79738 1.73081,1.15388 2.88468,2.84031 3.46162,5.0593 l 13.39391,49.486832 c 5.36995,18.994542 8.03274,28.713712 7.98836,29.15751 h 0.39942 c 2.92906,-14.201527 7.34485,-33.395777 13.24736,-57.582752 0.53255,-2.44089 1.77519,-4.46017 3.7279,-6.05784 1.95271,-1.59767 4.26045,-2.4187 6.92324,-2.46308 h 0.26628 c 2.57403,0 4.85959,0.79884 6.85668,2.39651 1.99709,1.59767 3.30629,3.63914 3.92761,6.12441 5.36995,21.391049 9.47002,29.177431 12.93165,46.174883 h 0.39942 c 0.22189,-1.065115 3.20039,0.623584 8.30406,-17.749641 l 7.92179,-30.089482 c 0.48818,-1.81957 1.59768,-3.41725 3.32849,-4.79302 1.73081,-1.37577 3.72789,-2.06366 5.99126,-2.06366 z" /></g><text
     transform="rotate(-39.644195)"
     id="text3955"
     y="-399.81827"
     x="-605.08252"
     style="font-style:normal;font-variant:normal;font-weight:normal;font-stretch:normal;font-size:160.98905945px;line-height:1.25;font-family:Dyuthi;-inkscape-font-specification:Dyuthi;letter-spacing:0px;word-spacing:0px;fill:#000000;fill-opacity:1;stroke:none;stroke-width:4.02472639"
     xml:space="preserve"><tspan
       style="stroke-width:4.02472639"
       y="-399.81827"
       x="-605.08252"
       id="tspan3953"
       sodipodi:role="line">C</tspan></text>
</g><path
   inkscape:connector-curvature="0"
   id="path3993"
   style="font-style:normal;font-variant:normal;font-weight:normal;font-stretch:normal;font-size:221.62730408px;line-height:1.25;font-family:Dyuthi;-inkscape-font-specification:Dyuthi;letter-spacing:0px;word-spacing:0px;fill:#000000;fill-opacity:1;stroke:none;stroke-width:8.09668541"
   d="m 162.38318,29.674723 q 0,0 0.48755,-0.213414 8.41036,-3.681479 15.33896,4.364713 6.92861,8.046188 7.08921,20.901458 l 1.67841,125.64861 q 0.12204,11.64114 -4.44761,20.8223 -4.56966,9.18115 -11.93008,12.19785 l -0.36554,0.16045 q -8.28847,3.62813 -16.63053,-0.927 -8.09827,-4.66183 -13.39746,-15.88329 l -21.17746,-44.27873 3.62541,51.96182 q 0.81708,12.77308 -3.78893,23.4063 -4.822,10.31746 -12.50102,13.67879 l -0.24375,0.10681 q -7.557153,3.308 -15.251243,-0.29976 -7.6941,-3.60775 -13.10446,-13.13919 l -56.40677,-101.6926 q -5.76747,-10.40096 -3.67627,-22.3954 2.09118,-11.994428 10.13589,-15.515847 l 0.24377,-0.106669 q 11.21384,-4.908648 18.57878,9.10158 l 25.42868,47.136686 q 0.47901,0.81616 20.50171,43.75387 -4.91061,-52.21993 -9.82121,-104.439841 -0.85123,-8.654775 2.55732,-15.481164 3.28666,-6.773029 8.08738,-8.669287 l 3.53479,-1.547289 q 12.188933,-5.335477 20.514083,12.973293 4.24706,9.219989 39.60706,88.939628 -1.99978,-25.38609 -4.04664,-50.95675 L 151.5867,51.635065 q -0.29536,-17.104799 10.79656,-21.960079 z" /><path
   inkscape:connector-curvature="0"
   id="path3995"
   style="font-style:normal;font-variant:normal;font-weight:normal;font-stretch:normal;font-size:221.62730408px;line-height:1.25;font-family:Dyuthi;-inkscape-font-specification:Dyuthi;letter-spacing:0px;word-spacing:0px;fill:#000000;fill-opacity:1;stroke:none;stroke-width:5.39554167"
   d="m 224.35941,197.05416 q -7.38504,0 -12.62604,-4.009 -5.12189,-4.10226 -5.12189,-9.88268 v -55.00733 q 0,-5.78043 5.241,-9.88267 5.36011,-4.10224 12.50693,-4.10224 h 0.23823 q 7.14683,0 12.38783,4.10224 5.241,4.10224 5.241,9.88267 v 55.00733 q 0,5.78042 -5.241,9.88268 -5.241,4.10223 -12.38783,4.009 z M 240.7971,92.07408 q 0,6.06013 -5.47923,10.2556 -5.36011,4.19548 -12.86427,4.19548 -7.62328,0 -12.86428,-4.19548 -5.24101,-4.19547 -5.36012,-10.2556 0,-6.060128 5.36012,-10.162369 5.241,-4.195474 12.86428,-4.102242 7.38505,0 12.86427,4.009008 5.47923,4.102241 5.47923,10.255603 z" /><path
   inkscape:connector-curvature="0"
   id="path3997"
   style="font-style:normal;font-variant:normal;font-weight:normal;font-stretch:normal;font-size:221.62730408px;line-height:1.25;font-family:Dyuthi;-inkscape-font-specification:Dyuthi;letter-spacing:0px;word-spacing:0px;fill:#000000;fill-opacity:1;stroke:none;stroke-width:8.24699306"
   d="m 297.50287,214.89936 q 0,13.7224 -5.12188,23.08849 -5.12189,9.36607 -12.74516,9.36607 h -0.35734 q -7.14683,0 -12.38783,-9.36607 -5.241,-9.5839 -5.241,-23.08849 V 6.667306 q 0,-13.504588 5.12189,-22.870668 5.00278,-9.36609 12.50694,-9.36609 h 0.35734 q 7.50415,0 12.74516,9.36609 5.241,9.36608 5.12188,22.870668 z" /><path
   inkscape:connector-curvature="0"
   id="path3999"
   style="font-style:normal;font-variant:normal;font-weight:normal;font-stretch:normal;font-size:221.62730408px;line-height:1.25;font-family:Dyuthi;-inkscape-font-specification:Dyuthi;letter-spacing:0px;word-spacing:0px;fill:#000000;fill-opacity:1;stroke:none;stroke-width:6.18431044"
   d="m 343.08147,163.18607 q 0,0 -3.62456,14.0723 -3.1413,12.196 0.94808,22.40237 4.20592,10.23684 13.70779,12.4709 4.97767,1.9273 10.87892,1.71792 12.07008,-0.97462 15.65591,-13.93054 0,0 10.20918,-39.63699 -0.60955,-7.29387 -9.66728,-13.66746 -9.02751,-6.49085 -20.96359,-4.10435 -5.73278,1.00442 -10.45483,6.77911 -4.63571,5.92243 -6.68962,13.89674 z m 30.86567,-40.61959 q 13.17142,3.44383 23.19223,13.32356 l 9.0916,-35.29803 q 1.63531,-6.832085 7.79949,-10.477383 6.16416,-3.6453 13.04129,-1.847191 l 0.46623,0.121909 q 6.76056,1.76763 10.38754,7.972944 3.62697,6.205311 1.87509,13.006921 l -33.46678,129.93426 q -0.43138,2.64088 -3.18972,4.17268 -2.64179,1.56225 -5.43927,0.83083 l -19.93197,-5.21146 q -3.0306,-0.79239 -4.46844,-3.42132 -1.43786,-2.62895 -0.54024,-5.14793 -13.408,3.75398 -26.69597,0.27966 -21.21415,-5.54671 -32.05637,-25.279 -10.84221,-19.73231 -5.07311,-42.13074 5.7993,-22.51568 24.79677,-34.44604 18.99748,-11.93036 40.21163,-6.38366 z" /><path
   inkscape:connector-curvature="0"
   id="path4001"
   style="font-style:normal;font-variant:normal;font-weight:normal;font-stretch:normal;font-size:221.62730408px;line-height:1.25;font-family:Dyuthi;-inkscape-font-specification:Dyuthi;letter-spacing:0px;word-spacing:0px;fill:#000000;fill-opacity:1;stroke:none;stroke-width:7.26696968"
   d="m 525.89603,225.62967 q -1.42935,0 -3.57341,-0.50737 -36.56789,-2.53684 -56.22166,-31.45705 -19.77286,-29.08932 -19.77286,-75.42928 0,-46.339955 21.32135,-75.260148 21.32134,-29.089318 54.67317,-33.317417 3.4543,-0.676496 5.241,-0.338247 1.78671,-0.338249 9.29088,0.676494 7.50415,0.845621 17.86705,5.750215 9.17174,3.720729 9.17174,17.927138 -0.23822,13.529915 -9.29085,17.927138 -4.2881,3.044231 -11.79226,-1.860364 -6.55126,-4.397221 -15.24656,-4.228098 -18.70084,0 -31.68423,20.971368 -12.9834,21.647865 -13.1025,51.244551 0,29.59669 12.98339,50.56806 13.1025,20.97137 31.80334,20.97137 8.6953,0 15.36568,-4.05897 6.67036,-4.05898 11.43491,-2.0295 h 0.35734 q 10.00555,4.39723 9.88643,19.11102 -0.11911,14.8829 -10.24377,18.43451 -10.00556,3.72073 -21.55958,4.39721 -2.14404,0.67651 -3.4543,0.50737 0,0 -3.4543,0 z" /><path
   inkscape:connector-curvature="0"
   id="path4003"
   style="font-style:normal;font-variant:normal;font-weight:normal;font-stretch:normal;font-size:221.62730408px;line-height:1.25;font-family:Dyuthi;-inkscape-font-specification:Dyuthi;letter-spacing:0px;word-spacing:0px;fill:#000000;fill-opacity:1;stroke:none;stroke-width:5.39554167"
   d="m 549.41934,119.34741 q 0,0 0,6.15336 0,9.69621 6.55126,16.5022 6.55125,6.80599 15.84212,6.61953 5.47923,0.46616 11.07758,-0.8391 11.31579,-3.07668 11.31579,-13.42551 0,0 0,-31.51267 -2.14405,-5.31427 -12.38782,-8.297719 -10.24378,-3.076682 -21.32135,1.02556 -11.07758,4.009009 -11.07758,23.774349 z m -17.39059,32.1653 q -15.24656,-12.58642 -15.24656,-30.39388 0,-17.90068 15.24656,-30.487105 15.24656,-12.586422 36.92524,-12.586422 18.22439,0 25.2521,12.586422 0,-4.102241 3.93075,-7.178922 3.4543,-2.70375 8.6953,-2.70375 h 9.17175 q 5.241,0 8.93353,2.70375 3.69253,3.076681 3.69253,7.178922 v 68.059905 q 0,2.42406 -2.14405,3.91578 -2.02493,1.49172 -4.88367,1.49172 h -14.29364 q -3.09695,0 -7.14682,-3.35638 -4.04986,-3.35638 -7.26593,-3.72931 -3.21607,-0.37293 -6.0748,1.1188 -11.79225,5.96689 -17.86705,5.96689 -21.67868,0 -36.92524,-12.58642 z" /><path
   inkscape:connector-curvature="0"
   id="path4005"
   style="font-style:normal;font-variant:normal;font-weight:normal;font-stretch:normal;font-size:221.62730408px;line-height:1.25;font-family:Dyuthi;-inkscape-font-specification:Dyuthi;letter-spacing:0px;word-spacing:0px;fill:#000000;fill-opacity:1;stroke:none;stroke-width:5.39554167"
   d="m 684.7325,81.961079 q 6.90859,-3.822542 25.13299,-3.822542 3.33518,0 5.12189,1.864654 1.7867,1.864656 1.19113,4.102241 l -2.38227,8.670647 q -1.66759,8.297711 -8.21884,7.551851 -10.95846,-1.39849 -19.53465,3.35638 -8.57619,4.75487 -8.69529,10.90823 v 0.18647 h -0.23824 v 36.08107 q 0,5.22104 -4.88366,9.13681 -4.88366,3.91578 -11.91136,3.91578 h -0.35735 q -6.90858,0 -11.79225,-3.72932 -4.76456,-3.82253 -4.76456,-9.32327 V 91.657285 q 0,-5.4075 5.00279,-9.323275 5.00278,-3.822543 11.79226,-3.822543 h 0.59556 q 8.6953,0 16.79503,9.696207 3.69252,-4.38194 7.14682,-6.246595 z" /><path
   inkscape:connector-curvature="0"
   id="path4007"
   style="font-style:normal;font-variant:normal;font-weight:normal;font-stretch:normal;font-size:221.62730408px;line-height:1.25;font-family:Dyuthi;-inkscape-font-specification:Dyuthi;letter-spacing:0px;word-spacing:0px;fill:#000000;fill-opacity:1;stroke:none;stroke-width:6.05378819"
   d="m 743.63178,131.22261 q 0,17.95744 10.00555,23.12167 7.74239,4.22527 3.69253,15.84479 -4.04987,11.97162 -12.86428,11.97162 -14.29364,0 -22.98894,-16.66637 -7.38505,-14.319 -7.38505,-36.38435 v -28.75536 h -4.28809 q -4.88366,0 -8.09973,-3.051592 -3.33519,-2.934223 -3.21607,-7.863714 v -0.234738 q 0,-4.577385 3.21607,-7.863714 3.21607,-3.286326 8.09973,-3.286326 h 4.28809 V 66.082901 q 0,-8.215819 6.55125,-13.027941 3.57342,-2.816853 10.12467,-2.816853 h 0.47645 q 4.04987,0 8.21885,5.164229 4.16897,5.16423 4.16897,10.680565 v 11.971625 h 10.00555 q 4.40721,0 7.74239,3.403695 3.33519,3.403698 3.33519,7.746345 v 0.234738 q 0,5.04686 -3.21607,7.981082 -3.21607,2.934224 -7.86151,2.934224 h -10.00555 z" /></svg>